<?xml version="1.0" encoding="UTF-8"?>
<svg id="Capa_2" data-name="Capa 2" xmlns="http://www.w3.org/2000/svg" viewBox="0 0 69.41 88.28">
  <defs>
    <style>
      .cls-1 {
        fill: #fff;
      }
    </style>
  </defs>
  <g id="Capa_1-2" data-name="Capa 1">
    <path class="cls-1" d="M34.72,0c15.56-.37,30.42,10.71,34.02,26.99,1.84,8.33-.32,16.06-3.84,23.5-5.18,10.95-12.46,20.49-20.17,29.73-1.71,2.05-3.42,4.14-5.38,5.94-3.09,2.84-6.28,2.78-9.45,.06-2.54-2.18-4.5-4.89-6.6-7.47-7.42-9.13-14.33-18.61-19.57-29.22C-.3,41.37-1.12,32.9,1.55,24.26,6.06,9.61,19.38,.01,34.72,0Zm.21,19.12c-8.15,.22-15.38,5.62-15.58,15.29-.18,8.36,5.65,15.39,15.16,15.63,8.24,.21,15.4-5.49,15.68-15.11,.24-8.23-5.46-15.25-15.25-15.82Z"/>
  </g>
</svg>