<?xml version="1.0" encoding="UTF-8"?>
<svg id="Capa_2" data-name="Capa 2" xmlns="http://www.w3.org/2000/svg" viewBox="0 0 64 64.51">
  <g id="Capa_1-2" data-name="Capa 1">
    <g>
      <path d="M7.58,51.49c-.14-.88,.26-1.84,.22-2.84-.02-.58-.21-.93-.74-1.13-1.14-.44-2.27-.9-3.4-1.33-1.11-.43-1.17-.57-.76-1.66,.46-1.22,.87-2.45,1.35-3.66,.18-.44,.03-.63-.32-.89-1.16-.87-2.27-1.81-3.43-2.68-.49-.36-.54-.67-.19-1.14,.79-1.08,1.54-2.19,2.35-3.25,.44-.56,.34-1.02-.04-1.51-.81-1.08-1.59-2.18-2.44-3.22-.33-.4-.18-.6,.09-.91,.94-1.07,2.23-1.71,3.3-2.62,.51-.43,.77-.71,.52-1.36-.48-1.22-.87-2.48-1.38-3.7-.32-.78-.15-1.09,.67-1.33,1.31-.38,2.57-.93,3.86-1.4,.62-.23,.63-.77,.51-1.24-.37-1.37,.03-2.78-.3-4.14-.11-.47,.24-.53,.6-.57,1.38-.13,2.75-.28,4.13-.39,.61-.05,.92-.2,1.14-.91,.36-1.19,.6-2.41,.9-3.62,.21-.84,.51-1.16,1.44-.9,1.2,.34,2.46,.44,3.68,.74,.58,.14,.82-.03,1.11-.49,.72-1.17,1.25-2.43,2-3.59,.43-.66,.76-.57,1.27-.3,1.16,.61,2.33,1.2,3.47,1.83,.52,.29,.87,.23,1.3-.2,.93-.93,1.94-1.79,2.89-2.71,.56-.54,1.02-.45,1.52,.07,.92,.94,1.86,1.85,2.79,2.78,.32,.32,.57,.34,1.02,.08,1.27-.74,2.61-1.35,3.93-2,.49-.25,.79-.04,1.03,.41,.66,1.23,1.35,2.44,2.01,3.66,.24,.44,.47,.59,1.02,.45,1.32-.34,2.67-.56,4.01-.82,.64-.12,1.05,0,1.17,.79,.19,1.23,.53,2.44,.77,3.67,.13,.65,.41,1.02,1.15,1.04,1.31,.05,2.62,.24,3.94,.26,.74,.01,1.01,.35,.85,.96-.37,1.36,.03,2.77-.33,4.13-.2,.74,.47,.97,.96,1.17,1.06,.45,2.14,.87,3.24,1.2,.84,.25,.99,.67,.78,1.47-.34,1.33-1.03,2.54-1.29,3.91-.09,.46-.03,.62,.31,.87,1.11,.82,2.18,1.71,3.3,2.51,.53,.38,.57,.71,.2,1.22-.8,1.09-1.53,2.23-2.34,3.31-.38,.51-.41,.9-.01,1.41,.81,1.03,1.57,2.11,2.36,3.16,.36,.47,.35,.75-.12,1.22-.99,.98-2.26,1.56-3.27,2.5-.43,.41-.57,.76-.38,1.28,.45,1.24,.83,2.51,1.36,3.71,.35,.8,0,1.19-.62,1.34-1.22,.31-2.32,.95-3.53,1.27-.65,.17-.93,.6-.85,1.25,.17,1.34-.11,2.71,.2,4.05,.15,.67-.32,.81-.9,.85-1.34,.1-2.68,.27-4.03,.37-.53,.04-.76,.29-.88,.76-.3,1.25-.63,2.49-.89,3.74-.16,.77-.5,1.06-1.29,.89-1.16-.25-2.35-.35-3.48-.69-1.01-.3-1.47,.25-1.74,.95-.44,1.18-1.35,2.08-1.8,3.25-.17,.44-.58,.46-1.01,.23-1.1-.6-2.23-1.14-3.31-1.77-.73-.42-1.27-.45-1.9,.23-.89,.96-1.93,1.8-2.87,2.72-.37,.37-.62,.33-.98-.02-.96-.94-2-1.82-2.93-2.8-.45-.47-.81-.56-1.37-.26-1.17,.62-2.38,1.15-3.53,1.81-.62,.36-.97,.24-1.28-.32-.65-1.17-1.32-2.33-1.95-3.52-.28-.53-.61-.69-1.2-.55-1.28,.31-2.57,.55-3.86,.84-.59,.13-.93,0-1.07-.65-.29-1.38-.67-2.75-.95-4.13-.1-.48-.3-.67-.77-.71-1.24-.11-2.49-.37-3.73-.35-1.1,.02-1.41-.41-1.28-1.39,.03-.2,0-.4,0-.71Zm49.67-19.14c.1-14.24-11.33-25.43-25.19-25.43-14.2,0-25.08,11.21-25.29,24.89-.21,14.22,11.11,25.63,25.58,25.57,13.6-.05,24.98-11.4,24.89-25.03Z"/>
      <path d="M36.89,32.37c-.28,0-.48,.04-.66,0-.38-.09-.73-.35-.66-.74,.07-.38,.47-.32,.8-.3,.89,.04,1.78,.04,2.68,.06,.26,0,.57,0,.58,.38,0,.32-.2,.5-.49,.51-.83,.03-1.14,.66-1.57,1.21-.48,.6-.54,1.1,.15,1.57,.69,.47,1.31,.37,1.75-.29,.14-.21,.23-.54,.54-.5,.36,.05,.36,.45,.42,.71,.31,1.23-.53,2.88-1.71,3.33-1.04,.4-2.16,.64-3.18,.18-1.21-.55-2.27-.1-3.41,.06-1.57,.22-3.16,.36-4.67-.38-2.3-1.12-2.08-3.68,.05-5.02,.17-.1,.34-.2,.53-.27,.64-.24,.83-.51,.41-1.22-1.57-2.66-.12-5.17,3.12-5.44,.95-.08,1.89-.05,2.83,.32,1.8,.71,2.28,2.5,1,3.96q-1.05,1.21-.02,2.34c.78,.86,.99,.81,1.51-.47Zm-4.43,4.97c.12-.03,.37-.01,.48-.13,.16-.18-.04-.36-.17-.5-.94-1.02-1.88-2.03-2.82-3.04-.1-.11-.18-.31-.39-.21-.17,.08-.17,.26-.19,.43-.06,.64,.27,1.17,.6,1.64,.59,.86,1.2,1.76,2.49,1.81Zm2.29-8.78c-.15-.46-.15-1.05-.8-1.2-.45-.11-.84,.09-.97,.49-.25,.81-.05,1.61,.31,2.36,.1,.2,.34,.42,.56,.28,.65-.4,.66-1.16,.87-1.8,.01-.03,.01-.06,.02-.13Z"/>
      <path d="M41.95,36.02c0-.5,0-.99,0-1.49,0-.33-.04-.69,.39-.81,.43-.12,.58,.21,.74,.49,.38,.7,.81,1.37,1.43,1.88,1.61,1.34,3.49,1.81,5.54,1.59,.35-.04,.74-.19,.8-.63,.05-.43-.26-.65-.6-.82-1.31-.65-2.76-.84-4.13-1.3-1.99-.66-3.75-1.73-4.08-3.69-.22-1.26,.02-2.42,.91-3.3,1.62-1.59,3.62-2.08,5.84-1.58,.58,.13,1.16,.26,1.7,.48,.78,.32,1.51,.7,2.15-.24,.16-.24,.48-.25,.73-.15,.26,.11,.33,.36,.32,.66-.04,.75-.05,1.51-.08,2.26-.01,.25,.05,.57-.3,.66-.31,.07-.46-.15-.63-.37-1.46-1.84-3.36-2.69-5.71-2.53-.23,.02-.47,.02-.68,.09-.24,.08-.53,.18-.56,.5-.03,.31,.2,.48,.43,.61,.86,.5,1.81,.77,2.76,1.05,1.35,.39,2.74,.71,3.84,1.67,2.32,2,1.68,5.93-1.22,7.11-2.21,.89-4.43,.74-6.44-.57-.81-.53-1.24-.3-1.72,.28-.28,.33-.54,.76-1.02,.58-.49-.18-.41-.7-.41-1.13,0-.43,0-.86,0-1.29Z"/>
      <path d="M13.17,30.39c-.18,2.13-.05,4.18-.09,6.22-.01,.67,.46,.69,.93,.77,.35,.05,.81,.05,.79,.55-.03,.55-.51,.52-.9,.52-.93,0-1.85,0-2.78,0-.41,0-.79-.18-.83-.56-.05-.47,.42-.56,.77-.54,.93,.05,1.1-.46,1.1-1.24-.02-2.18,0-4.37,0-6.55,0-1.15-.48-1.83-1.56-2.22-.23-.08-.49-.13-.44-.42,.05-.26,.32-.31,.56-.31,2.15,0,4.3,0,6.45,0,.46,0,.68,.32,.92,.65,1.41,1.89,2.84,3.77,4.4,5.83,0-1.79,0-3.36,0-4.94,0-.54-.42-.57-.81-.69-.26-.08-.66-.18-.59-.55,.07-.36,.46-.31,.75-.31,.83,0,1.65,0,2.48,0,.29,0,.66-.02,.64,.42-.02,.32-.24,.62-.56,.57-.72-.11-.78,.32-.76,.83,.16,3.07-.34,6.13-.16,9.2,.03,.58-.26,.81-.73,.82-1.06,.03-2.14,.14-3.16-.04-.78-.14-1.13-1.02-1.58-1.64-1.52-2.07-3.01-4.15-4.51-6.23-.03-.04-.11-.05-.29-.13Z"/>
    </g>
  </g>
</svg>