<?xml version="1.0" encoding="UTF-8"?>
<svg id="Capa_2" data-name="Capa 2" xmlns="http://www.w3.org/2000/svg" viewBox="0 0 78.86 78.91">
  <defs>
    <style>
      .cls-1 {
        fill: #fff;
      }
    </style>
  </defs>
  <g id="Capa_1-2" data-name="Capa 1">
    <path class="cls-1" d="M0,19.48C.06,13.86,2.43,7.98,7.13,3.08c3.88-4.04,9.66-4.11,13.7-.21,2.21,2.13,4.37,4.3,6.5,6.5,3.79,3.92,3.84,9.38,.11,13.36-1.29,1.38-2.68,2.66-3.99,4.03-2.06,2.15-2.07,4.83,.05,6.96,7.21,7.25,14.43,14.47,21.68,21.68,2.06,2.05,4.75,2.03,6.84,.04,1.33-1.27,2.59-2.61,3.92-3.89,4.02-3.86,9.62-3.86,13.6,.03,2.16,2.11,4.3,4.23,6.39,6.4,3.97,4.1,3.86,9.83-.22,13.82-9.52,9.3-25.34,9.58-34.87,.29-11.49-11.2-22.8-22.59-34.04-34.04C2.15,33.3-.02,27.36,0,19.48Z"/>
  </g>
</svg>