<?xml version="1.0" encoding="UTF-8"?>
<svg id="Capa_2" data-name="Capa 2" xmlns="http://www.w3.org/2000/svg" viewBox="0 0 64 64">
  <defs>
    <style>
      .cls-1 {
        fill: #fff;
      }

      .cls-2 {
        fill: none;
      }
    </style>
  </defs>
  <g id="Capa_1-2" data-name="Capa 1">
    <g>
      <rect class="cls-2" width="64" height="64"/>
      <path class="cls-1" d="M18.74,44.87c-7.52,.02-13.23-5.26-13.62-12.22-.4-7.17,4.95-12.4,10.69-13.34,4.52-.74,8.3,.85,11.75,3.55,2.7,2.12,4.84,4.73,6.63,7.64,1.73,2.81,3.81,5.31,6.53,7.2,2.43,1.69,5.08,2.39,7.96,1.3,3.96-1.5,5.84-5.85,4.31-9.8-1.52-3.9-6.01-5.77-9.99-4.17-2.06,.83-3.78,2.15-5.26,3.77-.64,.7-1,.67-1.49-.13-.59-.96-1.26-1.87-1.92-2.79-.31-.43-.4-.8,0-1.22,3.5-3.58,9.02-6.77,15.04-5.11,5.62,1.55,9.77,7.06,9.52,12.83-.27,6.05-4.73,11.2-10.56,12.24-5.34,.95-9.54-1.3-13.31-4.71-2.09-1.89-3.81-4.1-5.28-6.51-1.69-2.78-3.76-5.24-6.45-7.11-2.75-1.91-5.73-2.57-8.86-.94-3.43,1.78-4.87,5.85-3.43,9.47,1.41,3.54,5.38,5.45,9.08,4.39,2.46-.71,4.4-2.2,6.1-4.04,.7-.76,1.08-.69,1.57,.16,.46,.79,.96,1.58,1.56,2.27,.73,.84,.68,1.42-.15,2.18-3.18,2.91-6.72,4.96-10.43,5.07Z"/>
    </g>
  </g>
</svg>