<?xml version="1.0" encoding="UTF-8"?>
<svg id="Capa_2" data-name="Capa 2" xmlns="http://www.w3.org/2000/svg" viewBox="0 0 64 64">
  <defs>
    <style>
      .cls-1 {
        fill: #fff;
      }

      .cls-2 {
        fill: none;
      }
    </style>
  </defs>
  <g id="Capa_1-2" data-name="Capa 1">
    <g>
      <rect class="cls-2" width="64" height="64"/>
      <g>
        <g>
          <path class="cls-1" d="M21.34,13.86c2.85-.04,5.19,1.16,7.18,3.1,1.09,1.06,1.98,2.27,2.74,3.59q.73,1.27,1.5-.04c.82-1.41,1.81-2.69,3.01-3.81,3.42-3.18,8.02-3.77,11.93-1.52,3.8,2.18,5.87,6.98,4.94,11.28-.92,4.23-3.34,7.58-6.24,10.59-4.27,4.43-8.89,8.51-13.43,12.66-.64,.59-1.19,.67-1.86,.04-5.06-4.71-10.36-9.16-14.94-14.35-2.51-2.84-4.4-6.03-4.92-9.89-.82-6.11,3.95-11.63,10.11-11.65Zm-.59,1.72c-3.71,0-7.27,3.21-7.78,7.45-.33,2.76,.48,5.22,1.82,7.56,1.45,2.55,3.37,4.74,5.48,6.75,3.53,3.36,7.14,6.63,10.66,10,.82,.79,1.36,.74,2.15-.01,2.84-2.71,5.76-5.34,8.62-8.04,2.81-2.64,5.59-5.32,7.51-8.73,1.34-2.38,2.29-4.88,1.77-7.66-.59-3.17-2.22-5.61-5.34-6.78-3.01-1.13-5.8-.61-8.27,1.44-2.03,1.68-3.33,3.88-4.37,6.26-.19,.44-.36,.97-.96,1-.68,.03-.84-.55-1.05-1.02-.87-1.99-1.94-3.85-3.46-5.41-1.7-1.74-3.7-2.85-6.77-2.82Z"/>
          <path class="cls-1" d="M32,51.19c-.69,0-1.24-.38-1.58-.7-1.28-1.19-2.58-2.37-3.88-3.55-3.77-3.42-7.68-6.96-11.13-10.87-2.98-3.38-4.67-6.79-5.16-10.42-.43-3.21,.55-6.46,2.69-8.91,2.13-2.45,5.19-3.86,8.4-3.87,2.94-.05,5.5,1.06,7.89,3.38,1.04,1.01,1.95,2.18,2.78,3.59,.9-1.5,1.91-2.77,3.09-3.86,3.77-3.5,8.79-4.13,13.1-1.65,4.17,2.4,6.45,7.6,5.42,12.36-1.09,5.02-4.23,8.72-6.5,11.08-3.48,3.6-7.23,7.02-10.86,10.32-.87,.79-1.75,1.59-2.62,2.39-.59,.54-1.15,.74-1.63,.74Zm-.4-2.33l.18,.16c.13,.12,.21,.16,.23,.17,0,0,.1-.05,.27-.21,.04-.04,.09-.08,.13-.12-.27,.06-.54,.06-.81,0ZM20.92,16.57s-.1,0-.15,0h-.01c-3.31,0-6.35,2.96-6.79,6.57-.27,2.24,.27,4.45,1.7,6.94,1.26,2.21,2.95,4.28,5.3,6.52,1.68,1.6,3.38,3.18,5.08,4.76,1.87,1.74,3.73,3.47,5.58,5.23,.25,.24,.37,.29,.39,.3,0,0,.12-.06,.38-.31,1.57-1.5,3.16-2.97,4.75-4.44,1.29-1.2,2.59-2.39,3.87-3.6,2.54-2.39,5.42-5.11,7.32-8.49,1.56-2.77,2.06-4.86,1.66-6.99-.57-3.08-2.11-5.06-4.71-6.03-2.62-.98-5.08-.55-7.28,1.28-1.64,1.36-2.91,3.18-4.09,5.89l-.05,.11c-.2,.46-.61,1.43-1.78,1.49-1.31,.06-1.76-1.03-1.96-1.49l-.06-.13c-.96-2.19-1.99-3.81-3.26-5.11-1.72-1.76-3.49-2.51-5.9-2.51Zm10.51,5.77c.16,.34,.33,.69,.48,1.05l.07,.16s.01,.04,.02,.06c0-.02,.02-.04,.02-.06l.06-.14c.15-.33,.31-.7,.5-1.08-.17,.1-.36,.15-.58,.15h0c-.22,0-.41-.05-.57-.14Z"/>
        </g>
        <g>
          <path class="cls-1" d="M31.99,50.75c-.43,0-.86-.19-1.28-.58-1.29-1.2-2.61-2.4-3.89-3.56-3.76-3.41-7.65-6.94-11.09-10.83-2.93-3.32-4.58-6.65-5.06-10.19-.42-3.08,.53-6.21,2.58-8.57,2.05-2.35,4.99-3.71,8.08-3.72,2.81-.04,5.28,1.03,7.58,3.26,1.07,1.03,1.99,2.25,2.84,3.71,.08,.14,.17,.29,.24,.42,.08-.13,.18-.3,.27-.45,.9-1.55,1.92-2.83,3.12-3.95,3.62-3.37,8.45-3.98,12.59-1.6,4.01,2.31,6.2,7.31,5.21,11.89-.82,3.79-2.79,7.14-6.39,10.87-3.47,3.6-7.22,7.01-10.85,10.31-.87,.79-1.74,1.59-2.61,2.38-.45,.42-.9,.62-1.35,.62ZM21.48,14.42s-.09,0-.13,0h0c-2.76,.01-5.4,1.23-7.23,3.33-1.84,2.12-2.69,4.92-2.32,7.68,.45,3.36,1.97,6.41,4.79,9.59,3.39,3.85,7.26,7.35,11,10.74,1.28,1.16,2.61,2.37,3.9,3.57,.39,.36,.6,.4,1.09-.04,.87-.8,1.74-1.59,2.62-2.38,3.61-3.29,7.35-6.68,10.79-10.25,3.44-3.57,5.32-6.75,6.1-10.32,.88-4.05-1.13-8.64-4.66-10.67-3.7-2.12-8.01-1.57-11.26,1.44-1.11,1.03-2.06,2.24-2.9,3.68-.49,.85-.74,1.27-1.25,1.27h0c-.51,0-.75-.41-1.22-1.23-.79-1.37-1.66-2.51-2.65-3.47-2.04-1.97-4.21-2.94-6.65-2.94Zm10.53,34.05c-.48,0-.95-.24-1.46-.73-1.84-1.76-3.74-3.52-5.57-5.23-1.67-1.56-3.4-3.16-5.09-4.77-2.47-2.35-4.24-4.53-5.58-6.88-1.6-2.81-2.2-5.32-1.89-7.91,.54-4.45,4.2-7.94,8.33-7.95,2.92-.03,5.13,.89,7.18,2.99,1.41,1.44,2.54,3.21,3.58,5.58,.02,.05,.04,.1,.07,.15,.22,.52,.28,.54,.44,.53,.15,0,.21-.07,.41-.53l.06-.13c1.29-2.95,2.69-4.94,4.53-6.47,2.67-2.21,5.64-2.73,8.83-1.54,3.11,1.16,5.03,3.59,5.7,7.21,.59,3.19-.67,5.97-1.83,8.05-2.02,3.59-4.99,6.39-7.61,8.86-1.28,1.21-2.6,2.43-3.87,3.61-1.56,1.44-3.18,2.94-4.74,4.43-.52,.49-1,.74-1.48,.74ZM20.92,16.14s-.1,0-.15,0h0c-3.52,0-6.75,3.13-7.21,6.95-.28,2.34,.27,4.63,1.75,7.21,1.28,2.25,2.99,4.35,5.38,6.62,1.68,1.6,3.41,3.2,5.08,4.76,1.84,1.71,3.74,3.48,5.58,5.24,.58,.56,.78,.56,1.37-.01,1.57-1.5,3.19-2.99,4.75-4.44,1.27-1.18,2.59-2.39,3.87-3.6,2.56-2.42,5.47-5.15,7.4-8.59,1.14-2.02,2.23-4.47,1.71-7.28-.6-3.2-2.27-5.34-4.98-6.35-2.78-1.04-5.38-.59-7.71,1.35-1.7,1.41-3,3.27-4.21,6.05l-.05,.12c-.19,.44-.5,1.18-1.4,1.22-1.01,.05-1.35-.78-1.54-1.23-.02-.05-.04-.09-.06-.14-.98-2.24-2.04-3.9-3.35-5.24-1.81-1.85-3.67-2.65-6.21-2.65Z"/>
          <path class="cls-1" d="M31.99,51.75c-.69,0-1.35-.29-1.96-.85-1.27-1.18-2.58-2.37-3.85-3.52-3.81-3.46-7.73-7-11.2-10.94-3.06-3.47-4.79-6.98-5.3-10.72-.45-3.37,.57-6.78,2.82-9.36,2.24-2.57,5.46-4.05,8.83-4.07,3.04-.06,5.79,1.12,8.28,3.54,.88,.85,1.67,1.81,2.39,2.92,.81-1.23,1.7-2.28,2.7-3.21,3.96-3.68,9.23-4.34,13.77-1.73,4.38,2.52,6.77,7.97,5.69,12.97-.86,3.98-2.91,7.48-6.65,11.35-3.49,3.62-7.25,7.04-10.89,10.35l-.18,.16c-.81,.74-1.62,1.48-2.43,2.22-.64,.59-1.32,.89-2.03,.89ZM20.92,17.14h-.13c-3.05,0-5.84,2.73-6.25,6.07-.25,2.11,.26,4.21,1.62,6.59,1.23,2.16,2.88,4.19,5.2,6.39,1.68,1.59,3.4,3.2,5.07,4.75,1.84,1.71,3.74,3.47,5.58,5.24,0,0,0,0,0,0,1.57-1.5,3.2-3,4.76-4.45,1.27-1.17,2.58-2.39,3.86-3.59,2.51-2.37,5.36-5.05,7.21-8.36,1.05-1.87,2.06-4.11,1.6-6.61-.54-2.87-1.96-4.71-4.35-5.6-2.46-.92-4.66-.53-6.73,1.18-1.57,1.3-2.79,3.05-3.93,5.68l-.05,.11c-.2,.48-.74,1.75-2.27,1.83-1.69,.07-2.31-1.37-2.51-1.84l-.05-.13c-.93-2.12-1.93-3.69-3.15-4.94-1.63-1.67-3.22-2.34-5.49-2.34Z"/>
        </g>
      </g>
    </g>
  </g>
</svg>