<?xml version="1.0" encoding="UTF-8"?>
<svg id="Capa_2" data-name="Capa 2" xmlns="http://www.w3.org/2000/svg" viewBox="0 0 64 64">
  <defs>
    <style>
      .cls-1 {
        fill: #fff;
      }

      .cls-2 {
        fill: none;
      }
    </style>
  </defs>
  <g id="Capa_1-2" data-name="Capa 1">
    <g>
      <rect class="cls-2" width="64" height="64"/>
      <g>
        <path class="cls-1" d="M31.99,14.4c3.37,0,6.75,.01,10.12-.01,.67,0,1.16,.2,1.63,.69,3.12,3.32,6.26,6.62,9.41,9.91,.43,.45,.49,.76,.07,1.27-6.87,8.29-13.74,16.59-20.58,24.9-.49,.59-.77,.6-1.27,0-6.81-8.27-13.64-16.52-20.48-24.77-.46-.56-.53-.9,.01-1.46,3.14-3.26,6.25-6.55,9.35-9.85,.46-.49,.95-.7,1.62-.69,3.37,.02,6.75,.01,10.12,.01Zm-.03,31.86c.18-.33,.29-.51,.38-.71,2.58-5.89,5.15-11.78,7.74-17.67,.32-.72,.03-.79-.58-.79-4.97,.01-9.94,0-14.91,0-.97,0-.99,.04-.6,.93,1.89,4.32,3.78,8.65,5.67,12.97,.75,1.71,1.51,3.42,2.32,5.27Zm7.05-21.98c-2.3-2.17-4.46-4.2-6.62-6.24-.37-.35-.67-.11-.94,.15-.94,.88-1.89,1.76-2.82,2.65-1.17,1.11-2.34,2.22-3.63,3.44h14.01Zm-23.98,2.83c3.93,4.76,7.72,9.34,11.51,13.92-1.82-4.5-3.76-8.92-5.68-13.34-.14-.33-.33-.58-.73-.58-1.62,0-3.25,0-5.09,0Zm22.31,13.85s.09,.04,.13,.05c3.79-4.59,7.58-9.17,11.49-13.91-1.83,0-3.43,0-5.03,0-.44,0-.65,.23-.81,.6-.32,.78-.67,1.55-1,2.32-1.59,3.65-3.19,7.29-4.78,10.94Zm-14.45-18.46c1.97-1.85,3.73-3.52,5.64-5.32-1.8,0-3.37,0-4.94,0-.43,0-.71,.13-.71,.61,0,1.48,0,2.96,0,4.71Zm18.21,0c0-1.76,0-3.26,0-4.77,0-.33-.16-.53-.51-.53-1.64,0-3.28,0-5.12,0,1.91,1.8,3.67,3.46,5.63,5.3Zm7.31,1.83c.04-.06,.08-.13,.12-.19-1.5-1.59-3.01-3.18-4.65-4.91,0,1.67,0,3.12,0,4.57,0,.4,.23,.53,.59,.53,1.32,0,2.63,0,3.95,0Zm-28.29-5.11c-1.66,1.75-3.16,3.34-4.83,5.1,1.6,0,2.93,0,4.27,0,.46,0,.56-.26,.56-.65,0-1.4,0-2.8,0-4.45Z"/>
        <path class="cls-1" d="M31.99,51.86h0c-.34,0-.61-.27-.83-.54-6.73-8.17-13.62-16.5-20.48-24.77-.49-.59-.65-1.09,.03-1.8,2.71-2.81,5.59-5.84,9.35-9.84,.51-.54,1.06-.77,1.81-.77,2.48,.02,4.96,.02,7.45,.01h2.67s2.63,0,2.63,0c2.5,0,4.99,0,7.49-.01,.72-.01,1.3,.23,1.81,.77,2.97,3.16,6.04,6.4,9.4,9.91,.45,.47,.64,.93,.08,1.6-6.71,8.08-13.63,16.46-20.58,24.9-.22,.27-.49,.54-.83,.54ZM21.84,14.64c-.6,0-1.01,.18-1.42,.61-3.76,4-6.64,7.04-9.35,9.85-.42,.43-.42,.63,0,1.13,6.86,8.26,13.75,16.59,20.48,24.77,.39,.48,.49,.48,.89,0,6.95-8.44,13.88-16.82,20.58-24.9,.32-.39,.31-.55-.06-.94-3.36-3.51-6.44-6.76-9.41-9.92-.41-.44-.82-.6-1.44-.61-2.5,.02-5,.02-7.49,.01h-2.63s-2.67,0-2.67,0c-2.48,0-4.97,0-7.45-.01h-.02Zm10.09,32.19l-.94-2.14c-.54-1.23-1.06-2.41-1.58-3.59l-5.67-12.97c-.21-.48-.35-.79-.19-1.03s.5-.24,1.02-.24h4.63c3.43,0,6.86,0,10.29,0h.01c.37,0,.7,.02,.87,.28,.17,.25,.05,.6-.07,.87-1.84,4.17-3.66,8.34-5.49,12.51l-2.25,5.15c-.06,.13-.13,.26-.23,.43l-.4,.75Zm-7.94-19.45c.02,.12,.14,.38,.21,.55l5.67,12.97c.52,1.18,1.04,2.37,1.58,3.59l.53,1.21c.05-.09,.09-.17,.12-.25l2.25-5.15c1.82-4.17,3.65-8.35,5.49-12.51,.14-.31,.11-.39,.11-.4-.02-.02-.13-.02-.46-.05-3.43,0-6.86,0-10.29,0h-4.63c-.17,0-.46,0-.58,.03Zm3.38,15.06l-12.88-15.58h2.03c1.25,0,2.42,0,3.59,0h0c.57,0,.81,.39,.96,.73l.19,.43c1.83,4.21,3.73,8.56,5.5,12.92l.61,1.5Zm-11.82-15.08l10.13,12.25c-1.58-3.84-3.25-7.67-4.87-11.39l-.19-.43c-.14-.32-.26-.43-.5-.43h0c-1.17,0-2.34,0-3.59,0h-.97Zm21.99,13.96l-.54-.23,5.13-11.73c.26-.58,.51-1.17,.76-1.75,.14-.33,.39-.76,1.03-.76h0c1.14,0,2.27,0,3.5,0h2.06s-11.95,14.46-11.95,14.46Zm6.38-13.96c-.28,0-.43,.12-.57,.45-.25,.59-.5,1.18-.76,1.76l-4.51,10.31,10.35-12.52h-1c-1.22,0-2.36,0-3.5,0h0Zm.53-2.78c-.28,0-.49-.07-.63-.21-.13-.13-.2-.33-.2-.57,0-1.02,0-2.05,0-3.15v-2.05s5.21,5.51,5.21,5.51l-.29,.47h-1.27c-.94,0-1.88,0-2.82,0h0Zm-.34-4.73v.79c0,1.1,0,2.13,0,3.15,0,.07,0,.17,.06,.21,.04,.04,.14,.07,.28,.07h0c.94,0,1.88,0,2.82,0h.84l-4-4.22Zm-24.55,4.72h0c-.94,0-1.88,0-2.91,0h-1.94s5.66-5.98,5.66-5.98v1.94c0,1.11,0,2.12,0,3.14,0,.22-.02,.5-.22,.7-.14,.14-.33,.21-.58,.21Zm-1.74-.5c.59,0,1.17,0,1.74,0,.08,0,.18,0,.23-.06,.05-.05,.07-.17,.07-.34,0-1.01,0-2.03,0-3.14v-.68l-3.99,4.23h.78c.4,0,.79,0,1.17,0Zm21.81,.46h-15.27l1.51-1.44c.89-.84,1.73-1.64,2.57-2.44,.94-.89,1.88-1.77,2.83-2.65,.24-.22,.72-.68,1.29-.15l7.08,6.67Zm-14.02-.5h12.76l-6.16-5.81c-.17-.16-.27-.16-.6,.15-.94,.88-1.88,1.76-2.82,2.65-.84,.8-1.68,1.59-2.57,2.44l-.6,.58Zm-2.99-.96v-5.29c0-.27,.07-.48,.22-.62,.21-.21,.52-.25,.74-.23,1.11,0,2.21,0,3.4,0h2.16s-6.52,6.14-6.52,6.14Zm.95-5.65c-.19,0-.31,.03-.37,.09-.05,.05-.07,.14-.07,.27v4.13s4.76-4.49,4.76-4.49h-.9c-1.19,0-2.3,0-3.41,0h-.01Zm17.77,5.64l-6.51-6.13h1.73c1.4,0,2.71,0,4.02,0,.47,0,.76,.3,.76,.78,0,1.12,0,2.24,0,3.46v1.89Zm-5.25-5.63l4.75,4.48v-.73c0-1.22,0-2.34,0-3.46,0-.24-.1-.29-.26-.29-1.31,0-2.61,0-4.02,0h-.47Z"/>
      </g>
    </g>
  </g>
</svg>