<?xml version="1.0" encoding="UTF-8"?>
<svg id="Capa_2" data-name="Capa 2" xmlns="http://www.w3.org/2000/svg" viewBox="0 0 35 35">
  <defs>
    <style>
      .cls-1 {
        fill: #fff;
      }

      .cls-2 {
        fill: none;
      }
    </style>
  </defs>
  <g id="Capa_1-2" data-name="Capa 1">
    <g>
      <path class="cls-1" d="M3,20.21c0-2.17,0-4.33,0-6.5,0-1.77,1.23-3.1,2.98-2.97,3.27,.24,6.36-.43,9.41-1.52,1.85-.66,3.79-1.08,5.61-1.79,2.05-.8,4.15-.51,6.24-.55,.56-.01,.89,.44,.89,1.07,.01,1.2,.02,2.41,0,3.61,0,.43,.12,.59,.58,.61,1.9,.06,3.29,1.53,3.29,3.44,0,1.86-1.4,3.32-3.29,3.38-.46,.01-.58,.18-.58,.61,.02,1.18,.01,2.37,0,3.55,0,.79-.35,1.14-1.13,1.15-1.24,0-2.49,0-3.73,0-.41,0-.79-.13-1.17-.25-3.64-1.13-7.28-2.25-10.91-3.4-.59-.19-1.18-.19-1.78-.21-.43-.01-.55,.16-.55,.57,.01,1.93,0,3.85,0,5.78,0,1.08-.28,1.37-1.34,1.37-1.06,0-2.13,0-3.19,0-1.04,0-1.34-.3-1.34-1.31,0-2.21,0-4.41,0-6.62Zm19.27-4.64c0-1.93,0-3.85,0-5.78,0-.43-.12-.51-.52-.38-3.14,.98-6.28,1.95-9.43,2.9-.46,.14-.58,.38-.57,.82,.02,1.61,.03,3.21,0,4.82-.01,.55,.19,.77,.69,.92,3.09,.93,6.18,1.88,9.26,2.84,.47,.15,.59,.07,.58-.43-.02-1.91,0-3.81,0-5.72Zm-12.53,0c0-.78,0-1.56,0-2.35,0-.35-.12-.51-.49-.5-1.04,.01-2.08,0-3.13,.01-.74,.01-1.1,.39-1.11,1.13-.02,1.34,0,2.69-.01,4.03,0,.39,.13,.54,.52,.53,1.22-.02,2.45-.02,3.67,0,.43,0,.56-.16,.55-.57-.02-.76,0-1.52,0-2.28Zm16.38,.06c0-1.89,0-3.77,0-5.66,0-1.23,.14-1.06-1.08-1.12-.63-.03-.77,.19-.77,.79,.03,3.81,0,7.62,.02,11.44,0,1.35-.21,1.17,1.23,1.2,.49,.01,.62-.17,.61-.63-.02-2.01,0-4.01,0-6.02ZM6.86,23.32c0-.54,0-1.08,0-1.62-.02-1.42,.25-1.23-1.29-1.27-.42,0-.56,.15-.56,.56,.02,1.3,0,2.61,0,3.91,.02,1.39-.26,1.21,1.32,1.23,.39,0,.53-.14,.52-.53-.02-.76,0-1.52,0-2.29Zm21.29-7.77c0,.32,.01,.64,0,.96-.02,.39,.17,.49,.52,.44,.73-.11,1.23-.61,1.29-1.3,.05-.67-.41-1.23-1.13-1.42-.5-.13-.73,0-.68,.54,.02,.26,0,.52,0,.78Z"/>
      <rect class="cls-2" width="35" height="35"/>
    </g>
  </g>
</svg>