<?xml version="1.0" encoding="UTF-8"?>
<svg id="Capa_2" data-name="Capa 2" xmlns="http://www.w3.org/2000/svg" viewBox="0 0 35 35">
  <defs>
    <style>
      .cls-1 {
        fill: #fff;
      }

      .cls-2 {
        fill: none;
      }
    </style>
  </defs>
  <g id="Capa_1-2" data-name="Capa 1">
    <g>
      <path class="cls-1" d="M3.51,17.49c0-1.89,.01-3.78,0-5.67,0-.9,.38-1.52,1.15-1.94,3.82-2.03,7.63-4.06,11.45-6.09,.71-.38,1.41-.4,2.14-.03,4,2.03,8,4.05,12.01,6.08,.84,.42,1.26,1.07,1.25,2.05-.02,3.74-.02,7.48,0,11.23,0,.95-.4,1.6-1.22,2.01-4,2.03-8.01,4.05-12.01,6.08-.74,.38-1.45,.37-2.18-.02-3.8-2.02-7.6-4.04-11.4-6.06-.8-.42-1.2-1.05-1.19-1.97,.02-1.89,0-3.78,0-5.67Zm14.57,6.31c0,1.67,0,3.34,0,5.01,0,.34,.01,.53,.44,.32,3.57-1.82,7.16-3.63,10.74-5.44,.36-.18,.53-.43,.53-.85-.01-3.27-.01-6.54,0-9.81,0-.44-.12-.49-.5-.3-1.26,.65-2.53,1.28-3.8,1.89-.33,.16-.44,.37-.43,.72,.02,.94,0,1.89,0,2.83,0,.68-.29,1.06-.8,1.1-.55,.04-.92-.32-.96-1.01-.04-.63-.01-1.27-.02-1.91,0-.56-.05-.6-.54-.35-1.4,.69-2.79,1.4-4.2,2.08-.34,.17-.47,.37-.47,.76,.02,1.65,0,3.31,0,4.96Zm-12.86-5.81c0,1.62,0,3.23,0,4.85,0,.41,.14,.67,.51,.86,3.35,1.77,6.7,3.55,10.05,5.33,.36,.19,.51,.18,.51-.28,0-3.34,0-6.68,0-10.02,0-.31-.11-.5-.39-.64-3.41-1.77-6.82-3.55-10.23-5.34-.37-.19-.46-.11-.45,.29,.01,1.65,0,3.3,0,4.95Zm17.07-3.84c-.05-.04-.1-.1-.16-.13-3.48-1.84-6.96-3.68-10.44-5.52-.25-.13-.47-.12-.72,.01-1.42,.76-2.85,1.52-4.27,2.28-.12,.06-.32,.09-.31,.27,0,.17,.2,.19,.32,.26,3.34,1.75,6.69,3.49,10.03,5.24,.32,.17,.58,.18,.91,.01,1.4-.72,2.82-1.41,4.23-2.12,.14-.07,.32-.1,.39-.3ZM13.37,7.26c.06,.21,.2,.23,.31,.29,3.21,1.7,6.43,3.36,9.61,5.11,.81,.45,1.43,.49,2.23,.01,.99-.59,2.05-1.05,3.09-1.57-.11-.24-.3-.27-.46-.35-3.32-1.68-6.65-3.34-9.94-5.06-.73-.38-1.29-.41-1.99,.02-.92,.57-1.9,1.03-2.84,1.54Z"/>
      <rect class="cls-2" width="35" height="35"/>
    </g>
  </g>
</svg>