<?xml version="1.0" encoding="UTF-8"?>
<svg id="Capa_2" data-name="Capa 2" xmlns="http://www.w3.org/2000/svg" viewBox="0 0 35 35">
  <defs>
    <style>
      .cls-1 {
        fill: #fff;
      }

      .cls-2 {
        fill: none;
      }
    </style>
  </defs>
  <g id="Capa_1-2" data-name="Capa 1">
    <g>
      <g>
        <path class="cls-1" d="M14.23,8.06c2.51,0,5.01,0,7.52,0,.95,0,1.17,.24,1.18,1.2q0,1.47,1.5,1.47c1.34,0,2.68,.01,4.02,0,.61,0,.99,.23,1.26,.79,.74,1.55,1.53,3.09,2.3,4.62,.16,.31,.24,.63,.24,.99,0,2.05,0,4.09,0,6.14,0,.74-.21,.96-.94,1.01-.1,0-.19,.02-.29,0-.88-.13-1.45,.04-1.74,1.07-.29,1.04-1.51,1.65-2.56,1.58-1.17-.07-2.19-.83-2.47-1.98-.15-.59-.43-.7-.96-.68-1.03,.03-2.07,.02-3.1,0-.41,0-.61,.12-.72,.54-.32,1.28-1.42,2.13-2.67,2.12-1.27,0-2.35-.88-2.65-2.21-.08-.33-.2-.47-.53-.45-.21,0-.42,.02-.63,0-.86-.1-1.47,0-1.75,1.06-.27,1.03-1.5,1.65-2.55,1.6-1.14-.06-2.19-.8-2.46-1.91-.16-.67-.48-.8-1.08-.75-.51,.04-1.03,.03-1.55,0-.64-.04-.86-.28-.86-.91,0-3,0-6.01,0-9.01,0-.32,.1-.6,.24-.87,.78-1.56,1.57-3.11,2.33-4.67,.26-.54,.63-.75,1.22-.75,2.56,.02,5.13,0,7.69,0Zm-.3,1.52c-2.26,0-4.52,0-6.78,0-.42,0-.66,.14-.85,.52-.6,1.26-1.24,2.51-1.87,3.75-.16,.32-.23,.64-.23,.99,0,2.26,0,4.52,0,6.78,0,1.3-.16,1.12,1.17,1.17,.67,.02,1.17-.12,1.67-.63,.9-.92,2.52-.98,3.44-.06,.63,.63,1.27,.73,2.05,.68,.46-.03,.92-.02,1.38,0,.38,.02,.63-.11,.89-.4,1.03-1.17,2.88-1.24,3.93-.11,.37,.4,.73,.56,1.24,.51,.25-.02,.5-.03,.75,0,.53,.06,.7-.16,.7-.69-.02-3.92,0-7.85,0-11.77,0-.69-.04-.73-.76-.73-2.24,0-4.48,0-6.72,0Zm9,7.87c0,1.57,0,3.14,0,4.71,0,.22-.07,.47,.22,.59,.46,.18,1.35-.04,1.72-.42,1.04-1.09,2.79-1.2,3.8-.13,.48,.51,.95,.6,1.56,.58,.43,0,.57-.16,.56-.58-.02-1.36-.02-2.72,0-4.07,0-.46-.16-.59-.6-.58-1.7,.02-3.4,.01-5.11,0-.73,0-.96-.23-.96-.96,0-1.24-.02-2.49,0-3.73,0-.43-.11-.62-.58-.62-.47,0-.64,.14-.63,.62,.02,1.53,0,3.06,0,4.59Zm5.02-1.35c.57,0,1.15,0,1.72,0q.66,0,.35-.62c-.21-.43-.41-.86-.64-1.28-.35-.63-.46-1.51-1.07-1.85-.6-.34-1.42-.07-2.14-.1-.02,0-.04,0-.06,0-.39-.04-.55,.12-.54,.52,.02,.93,.02,1.87,0,2.81,0,.41,.16,.53,.55,.52,.61-.02,1.22,0,1.83,0Zm-1.08,6.85c-.72,0-1.29,.55-1.29,1.26,0,.67,.56,1.22,1.25,1.22,.72,0,1.3-.55,1.29-1.25,0-.67-.58-1.23-1.26-1.23Zm-18.06,2.48c.73,0,1.29-.56,1.27-1.26-.02-.67-.59-1.22-1.27-1.22-.69,0-1.25,.54-1.26,1.22-.01,.71,.54,1.26,1.26,1.26Zm8.01,0c.73,0,1.24-.48,1.24-1.21,0-.72-.5-1.26-1.19-1.27-.72-.01-1.28,.53-1.29,1.25,0,.7,.52,1.22,1.24,1.23Z"/>
        <path class="cls-1" d="M12.83,16.26c-1.63,0-3.25,0-4.88,0-.25,0-.5,0-.73-.09-.29-.13-.44-.35-.44-.67,0-.32,.15-.56,.46-.66,.21-.07,.45-.09,.68-.09,3.25,0,6.51,0,9.76,0,.81,0,1.21,.25,1.22,.74,.01,.52-.39,.78-1.24,.78-1.61,0-3.22,0-4.82,0Z"/>
        <path class="cls-1" d="M12.87,17.46c1.68,0,3.36,0,5.05,0,.64,0,.98,.26,.98,.71,0,.45-.37,.74-.98,.74-3.4,0-6.81,0-10.21,0-.62,0-.94-.28-.93-.76,.01-.46,.3-.68,.93-.68,1.72,0,3.44,0,5.16,0Z"/>
        <path class="cls-1" d="M13.53,12.08c1.4,0,2.79,0,4.19,0,.19,0,.39,0,.57,.04,.38,.09,.61,.34,.6,.73-.01,.36-.23,.61-.6,.67-.26,.05-.53,.07-.8,.07-2.68,0-5.35,0-8.03,0-.27,0-.54-.02-.8-.07-.37-.07-.56-.34-.57-.69,0-.37,.21-.61,.57-.7,.18-.05,.38-.05,.57-.05,1.43,0,2.87,0,4.3,0Z"/>
      </g>
      <rect class="cls-2" width="35" height="35"/>
    </g>
  </g>
</svg>